<svg width="34" height="29" viewBox="0 0 34 29" fill="none" xmlns="http://www.w3.org/2000/svg">
<path d="M1.55357 0C0.692634 0 0 0.692634 0 1.55357V27.4464C0 28.3074 0.692634 29 1.55357 29H2.58929C3.45022 29 4.14286 28.3074 4.14286 27.4464V1.55357C4.14286 0.692634 3.45022 0 2.58929 0H1.55357ZM7.25 0C6.68036 0 6.21429 0.466071 6.21429 1.03571V27.9643C6.21429 28.5339 6.68036 29 7.25 29C7.81965 29 8.28572 28.5339 8.28572 27.9643V1.03571C8.28572 0.466071 7.81965 0 7.25 0ZM11.9107 0C11.0498 0 10.3571 0.692634 10.3571 1.55357V27.4464C10.3571 28.3074 11.0498 29 11.9107 29H12.9464C13.8074 29 14.5 28.3074 14.5 27.4464V1.55357C14.5 0.692634 13.8074 0 12.9464 0H11.9107ZM18.125 0C17.2641 0 16.5714 0.692634 16.5714 1.55357V27.4464C16.5714 28.3074 17.2641 29 18.125 29H19.1607C20.0217 29 20.7143 28.3074 20.7143 27.4464V1.55357C20.7143 0.692634 20.0217 0 19.1607 0H18.125ZM29 1.55357V27.4464C29 28.3074 29.6926 29 30.5536 29H31.5893C32.4502 29 33.1429 28.3074 33.1429 27.4464V1.55357C33.1429 0.692634 32.4502 0 31.5893 0H30.5536C29.6926 0 29 0.692634 29 1.55357ZM24.8572 1.03571V27.9643C24.8572 28.5339 25.3232 29 25.8929 29C26.4625 29 26.9286 28.5339 26.9286 27.9643V1.03571C26.9286 0.466071 26.4625 0 25.8929 0C25.3232 0 24.8572 0.466071 24.8572 1.03571Z" fill="white"/>
</svg>
