<svg width="30" height="30" viewBox="0 0 30 30" fill="none" xmlns="http://www.w3.org/2000/svg">
<path d="M21.1807 0.0724714C21.4737 0.1955 21.6846 0.459134 21.7432 0.769636L22.909 7.09099L29.2304 8.25098C29.5409 8.30956 29.8045 8.52047 29.9275 8.81339C30.0506 9.10632 30.0154 9.44026 29.8338 9.70389L26.1839 15L29.8338 20.2903C30.0154 20.5539 30.0506 20.8878 29.9275 21.1807C29.8045 21.4737 29.5409 21.6846 29.2304 21.7432L22.909 22.909L21.7432 29.2304C21.6846 29.5409 21.4737 29.8045 21.1807 29.9275C20.8878 30.0506 20.5539 30.0154 20.2903 29.8338L15 26.1839L9.70975 29.8338C9.44612 30.0154 9.11218 30.0506 8.81925 29.9275C8.52633 29.8045 8.31542 29.5409 8.25683 29.2304L7.09099 22.909L0.769636 21.7432C0.459134 21.6846 0.1955 21.4737 0.0724714 21.1807C-0.0505577 20.8878 -0.0154065 20.5539 0.166208 20.2903L3.81607 15L0.166208 9.70975C-0.0154065 9.44612 -0.0505577 9.11218 0.0724714 8.81925C0.1955 8.52633 0.459134 8.31542 0.769636 8.25683L7.09099 7.09099L8.25683 0.769636C8.31542 0.459134 8.52633 0.1955 8.81925 0.0724714C9.11218 -0.0505577 9.44612 -0.0154065 9.70975 0.166208L15 3.81607L20.2903 0.166208C20.5539 -0.0154065 20.8878 -0.0505577 21.1807 0.0724714ZM20.6242 15C20.6242 18.105 18.105 20.6242 15 20.6242C11.895 20.6242 9.37581 18.105 9.37581 15C9.37581 11.895 11.895 9.37581 15 9.37581C18.105 9.37581 20.6242 11.895 20.6242 15ZM22.4989 15C22.4989 10.858 19.142 7.50108 15 7.50108C10.858 7.50108 7.50108 10.858 7.50108 15C7.50108 19.142 10.858 22.4989 15 22.4989C19.142 22.4989 22.4989 19.142 22.4989 15Z" fill="white"/>
</svg>
