<svg width="31" height="27" viewBox="0 0 31 27" fill="none" xmlns="http://www.w3.org/2000/svg">
<path d="M13.3576 1.85088C13.6793 1.22862 13.4367 0.463968 12.8197 0.142288C12.2027 -0.179392 11.4328 0.0631864 11.1111 0.680179L6.20156 10.1249H1.6875C0.754102 10.1249 0 10.879 0 11.8124C0 12.7458 0.754102 13.4999 1.6875 13.4999L4.42441 24.4423C4.79883 25.9452 6.14883 26.9999 7.69922 26.9999H22.6758C24.2262 26.9999 25.5762 25.9452 25.9506 24.4423L28.6875 13.4999C29.6209 13.4999 30.375 12.7458 30.375 11.8124C30.375 10.879 29.6209 10.1249 28.6875 10.1249H24.1734L19.2639 0.680179C18.9422 0.0631864 18.1775 -0.179392 17.5553 0.142288C16.933 0.463968 16.6957 1.22862 17.0174 1.85088L21.3205 10.1249H9.05449L13.3576 1.85088ZM10.125 16.0312V21.0937C10.125 21.5577 9.74531 21.9374 9.28125 21.9374C8.81719 21.9374 8.4375 21.5577 8.4375 21.0937V16.0312C8.4375 15.5671 8.81719 15.1874 9.28125 15.1874C9.74531 15.1874 10.125 15.5671 10.125 16.0312ZM15.1875 15.1874C15.6516 15.1874 16.0312 15.5671 16.0312 16.0312V21.0937C16.0312 21.5577 15.6516 21.9374 15.1875 21.9374C14.7234 21.9374 14.3438 21.5577 14.3438 21.0937V16.0312C14.3438 15.5671 14.7234 15.1874 15.1875 15.1874ZM21.9375 16.0312V21.0937C21.9375 21.5577 21.5578 21.9374 21.0938 21.9374C20.6297 21.9374 20.25 21.5577 20.25 21.0937V16.0312C20.25 15.5671 20.6297 15.1874 21.0938 15.1874C21.5578 15.1874 21.9375 15.5671 21.9375 16.0312Z" fill="white"/>
</svg>
