<svg width="32" height="27" viewBox="0 0 32 27" fill="none" xmlns="http://www.w3.org/2000/svg">
<path d="M4.67245 1.92857C4.67245 0.86183 3.81062 0 2.74388 0C1.67714 0 0.815308 0.86183 0.815308 1.92857V22.1786C0.815308 24.8424 2.9729 27 5.63674 27H29.7439C30.8106 27 31.6725 26.1382 31.6725 25.0714C31.6725 24.0047 30.8106 23.1429 29.7439 23.1429H5.63674C5.10638 23.1429 4.67245 22.7089 4.67245 22.1786V1.92857ZM29.1774 7.14777C29.9307 6.39442 29.9307 5.17098 29.1774 4.41763C28.424 3.66429 27.2006 3.66429 26.4472 4.41763L20.101 10.7699L16.6416 7.31049C15.8883 6.55714 14.6649 6.55714 13.9115 7.31049L7.16151 14.0605C6.40817 14.8138 6.40817 16.0373 7.16151 16.7906C7.91486 17.544 9.1383 17.544 9.89165 16.7906L15.2796 11.4087L18.739 14.8681C19.4923 15.6214 20.7158 15.6214 21.4691 14.8681L29.1834 7.15379L29.1774 7.14777Z" fill="white"/>
</svg>
