<svg width="20" height="28" viewBox="0 0 20 28" fill="none" xmlns="http://www.w3.org/2000/svg">
<path d="M1.92388 9.34183V7.78683H0.535607V5.68938H1.92388V0.5H9.64406C12.477 0.500027 14.6215 1.18109 16.0775 2.5432C16.9353 3.36292 17.5392 4.41165 17.8891 5.68938H19.4467V7.78683H18.2277C18.239 8.03999 18.2446 8.29915 18.2446 8.56433C18.2446 8.82954 18.239 9.08871 18.2277 9.34183H19.4297V11.4393H17.906C17.5561 12.7291 16.9466 13.7839 16.0775 14.6035C14.6215 15.9657 12.477 16.6468 9.64406 16.6467H5.34379V27.4956H1.92388V11.4393H0.518677V9.34183H1.92388ZM13.9951 11.4393H5.34379V13.6452H9.64406C11.2355 13.6452 12.4658 13.2053 13.3349 12.3253C13.5944 12.0601 13.8145 11.7648 13.9951 11.4393ZM5.34379 5.68938H13.9951C13.8145 5.36393 13.5944 5.07463 13.3349 4.82147C12.4658 3.94153 11.2355 3.50155 9.64406 3.50152H5.34379V5.68938ZM14.6046 7.78683H5.34379V9.34183H14.6046C14.6272 9.08871 14.6385 8.82954 14.6385 8.56433C14.6385 8.29915 14.6272 8.03999 14.6046 7.78683Z" fill="#FAFAFA"/>
</svg>
