<svg width="27" height="27" viewBox="0 0 27 27" fill="none" xmlns="http://www.w3.org/2000/svg">
<path d="M9.64286 2.89286C9.64286 1.29576 10.9386 0 12.5357 0H14.4643C16.0614 0 17.3571 1.29576 17.3571 2.89286V24.1071C17.3571 25.7042 16.0614 27 14.4643 27H12.5357C10.9386 27 9.64286 25.7042 9.64286 24.1071V2.89286ZM0 14.4643C0 12.8672 1.29576 11.5714 2.89286 11.5714H4.82143C6.41853 11.5714 7.71429 12.8672 7.71429 14.4643V24.1071C7.71429 25.7042 6.41853 27 4.82143 27H2.89286C1.29576 27 0 25.7042 0 24.1071V14.4643ZM22.1786 3.85714H24.1071C25.7042 3.85714 27 5.1529 27 6.75V24.1071C27 25.7042 25.7042 27 24.1071 27H22.1786C20.5815 27 19.2857 25.7042 19.2857 24.1071V6.75C19.2857 5.1529 20.5815 3.85714 22.1786 3.85714Z" fill="white"/>
</svg>
