<svg width="30" height="31" viewBox="0 0 30 31" fill="none" xmlns="http://www.w3.org/2000/svg">
<path d="M24.3762 12.3077C24.3762 14.6897 23.6911 16.9109 22.5123 18.7879C22.2503 19.205 22.289 19.7529 22.6372 20.1013L29.4507 26.9188C30.1831 27.6511 30.1831 28.8404 29.4507 29.5727C28.7182 30.305 27.5287 30.305 26.7962 29.5727L19.9842 22.7566C19.6354 22.4076 19.0864 22.3691 18.6687 22.632C16.7915 23.8132 14.5703 24.4934 12.1881 24.4934C5.45534 24.4934 0 19.0391 0 12.3077C0 5.57623 5.45534 0.121948 12.1881 0.121948C18.9208 0.121948 24.3762 5.57623 24.3762 12.3077ZM12.1881 20.7439C16.8465 20.7439 20.626 16.9652 20.626 12.3077C20.626 7.65014 16.8465 3.8714 12.1881 3.8714C7.52966 3.8714 3.75018 7.65014 3.75018 12.3077C3.75018 16.9652 7.52966 20.7439 12.1881 20.7439Z" fill="white"/>
</svg>
