<svg width="31" height="27" viewBox="0 0 31 27" fill="none" xmlns="http://www.w3.org/2000/svg">
<path d="M0 1.26562C0 0.564258 0.564258 0 1.26562 0H3.66504C4.82519 0 5.85352 0.675 6.3334 1.6875H28.0072C29.3941 1.6875 30.4066 3.00586 30.0428 4.34531L27.8807 12.3768C27.4324 14.0326 25.9295 15.1875 24.2156 15.1875H9.00176L9.28652 16.6904C9.40254 17.2863 9.92461 17.7188 10.5311 17.7188H25.7344C26.4357 17.7188 27 18.283 27 18.9844C27 19.6857 26.4357 20.25 25.7344 20.25H10.5311C8.70644 20.25 7.14023 18.9527 6.80273 17.165L4.08164 2.87402C4.04473 2.67363 3.8707 2.53125 3.66504 2.53125H1.26562C0.564258 2.53125 0 1.96699 0 1.26562ZM6.75 24.4688C6.75 24.1363 6.81547 23.8072 6.94268 23.5001C7.06989 23.193 7.25634 22.9139 7.49138 22.6789C7.72643 22.4438 8.00548 22.2574 8.31258 22.1302C8.61969 22.003 8.94884 21.9375 9.28125 21.9375C9.61366 21.9375 9.94281 22.003 10.2499 22.1302C10.557 22.2574 10.8361 22.4438 11.0711 22.6789C11.3062 22.9139 11.4926 23.193 11.6198 23.5001C11.747 23.8072 11.8125 24.1363 11.8125 24.4688C11.8125 24.8012 11.747 25.1303 11.6198 25.4374C11.4926 25.7445 11.3062 26.0236 11.0711 26.2586C10.8361 26.4937 10.557 26.6801 10.2499 26.8073C9.94281 26.9345 9.61366 27 9.28125 27C8.94884 27 8.61969 26.9345 8.31258 26.8073C8.00548 26.6801 7.72643 26.4937 7.49138 26.2586C7.25634 26.0236 7.06989 25.7445 6.94268 25.4374C6.81547 25.1303 6.75 24.8012 6.75 24.4688ZM24.4687 21.9375C25.1401 21.9375 25.7839 22.2042 26.2586 22.6789C26.7333 23.1536 27 23.7974 27 24.4688C27 25.1401 26.7333 25.7839 26.2586 26.2586C25.7839 26.7333 25.1401 27 24.4687 27C23.7974 27 23.1536 26.7333 22.6789 26.2586C22.2042 25.7839 21.9375 25.1401 21.9375 24.4688C21.9375 23.7974 22.2042 23.1536 22.6789 22.6789C23.1536 22.2042 23.7974 21.9375 24.4687 21.9375Z" fill="white"/>
</svg>
