<svg width="29" height="27" viewBox="0 0 29 27" fill="none" xmlns="http://www.w3.org/2000/svg">
<path d="M28.0351 5.47383L25.0134 0.69082C24.7445 0.263672 24.2646 0 23.7531 0H4.93747C4.42595 0 3.94606 0.263672 3.67712 0.69082L0.650164 5.47383C-0.910773 7.9418 0.470867 11.3748 3.38708 11.7703C3.59802 11.7967 3.81423 11.8125 4.02516 11.8125C5.40153 11.8125 6.62497 11.2113 7.46345 10.2832C8.30192 11.2113 9.52536 11.8125 10.9017 11.8125C12.2781 11.8125 13.5015 11.2113 14.34 10.2832C15.1785 11.2113 16.4019 11.8125 17.7783 11.8125C19.1599 11.8125 20.3781 11.2113 21.2166 10.2832C22.0603 11.2113 23.2785 11.8125 24.6549 11.8125C24.8711 11.8125 25.082 11.7967 25.2929 11.7703C28.2197 11.3801 29.6066 7.94707 28.0404 5.47383H28.0351ZM25.5091 13.442H25.5039C25.2244 13.4789 24.9396 13.5 24.6496 13.5C23.9957 13.5 23.3681 13.3998 22.7828 13.2205V20.25H5.90778V13.2152C5.31716 13.3998 4.68434 13.5 4.03044 13.5C3.7404 13.5 3.45036 13.4789 3.17087 13.442H3.16559C2.94938 13.4104 2.73845 13.3734 2.53278 13.3207V20.25V23.625C2.53278 25.4865 4.04626 27 5.90778 27H22.7828C24.6443 27 26.1578 25.4865 26.1578 23.625V20.25V13.3207C25.9468 13.3734 25.7359 13.4156 25.5091 13.442Z" fill="white"/>
</svg>
